<?xml version="1.0" encoding="utf-8" standalone="no"?>
<!DOCTYPE svg PUBLIC "-//W3C//DTD SVG 1.1//EN"
  "http://www.w3.org/Graphics/SVG/1.1/DTD/svg11.dtd">
<svg xmlns:xlink="http://www.w3.org/1999/xlink" width="451.44pt" height="288pt" viewBox="0 0 451.44 288" xmlns="http://www.w3.org/2000/svg" version="1.1">
 <metadata>
  <rdf:RDF xmlns:dc="http://purl.org/dc/elements/1.1/" xmlns:cc="http://creativecommons.org/ns#" xmlns:rdf="http://www.w3.org/1999/02/22-rdf-syntax-ns#">
   <cc:Work>
    <dc:type rdf:resource="http://purl.org/dc/dcmitype/StillImage"/>
    <dc:date>2026-09-29T16:27:19.377806</dc:date>
    <dc:format>image/svg+xml</dc:format>
    <dc:creator>
     <cc:Agent>
      <dc:title>Matplotlib v3.9.2, https://matplotlib.org/</dc:title>
     </cc:Agent>
    </dc:creator>
   </cc:Work>
  </rdf:RDF>
 </metadata>
 <defs>
  <style type="text/css">*{stroke-linejoin: round; stroke-linecap: butt}</style>
 </defs>
 <g id="figure_1">
  <g id="patch_1">
   <path d="M 0 288 
L 451.44 288 
L 451.44 0 
L 0 0 
z
" style="fill: #ffffff"/>
  </g>
  <g id="axes_1">
   <g id="patch_2">
    <path d="M 49.6584 241.92 
L 442.4112 241.92 
L 442.4112 69.12 
L 49.6584 69.12 
z
" style="fill: #ffffff"/>
   </g>
   <g id="matplotlib.axis_1">
    <g id="xtick_1">
     <g id="line2d_1">
      <defs>
       <path id="m0ce94dd69f" d="M 0 0 
L 0 3.5 
" style="stroke: #000000; stroke-width: 0.8"/>
      </defs>
      <g>
       <use xlink:href="#m0ce94dd69f" x="85.3632" y="241.92" style="stroke: #000000; stroke-width: 0.8"/>
      </g>
     </g>
     <g id="text_1">
      <text style="font: 8px 'Arial', 'DejaVu Sans', sans-serif; text-anchor: middle" x="85.3632" y="254.64625" transform="rotate(-0 85.3632 254.64625)">4</text>
     </g>
    </g>
    <g id="xtick_2">
     <g id="line2d_2">
      <g>
       <use xlink:href="#m0ce94dd69f" x="156.7728" y="241.92" style="stroke: #000000; stroke-width: 0.8"/>
      </g>
     </g>
     <g id="text_2">
      <text style="font: 8px 'Arial', 'DejaVu Sans', sans-serif; text-anchor: middle" x="156.7728" y="254.64625" transform="rotate(-0 156.7728 254.64625)">6</text>
     </g>
    </g>
    <g id="xtick_3">
     <g id="line2d_3">
      <g>
       <use xlink:href="#m0ce94dd69f" x="228.1824" y="241.92" style="stroke: #000000; stroke-width: 0.8"/>
      </g>
     </g>
     <g id="text_3">
      <text style="font: 8px 'Arial', 'DejaVu Sans', sans-serif; text-anchor: middle" x="228.1824" y="254.64625" transform="rotate(-0 228.1824 254.64625)">8</text>
     </g>
    </g>
    <g id="xtick_4">
     <g id="line2d_4">
      <g>
       <use xlink:href="#m0ce94dd69f" x="299.592" y="241.92" style="stroke: #000000; stroke-width: 0.8"/>
      </g>
     </g>
     <g id="text_4">
      <text style="font: 8px 'Arial', 'DejaVu Sans', sans-serif; text-anchor: middle" x="299.592" y="254.64625" transform="rotate(-0 299.592 254.64625)">10</text>
     </g>
    </g>
    <g id="xtick_5">
     <g id="line2d_5">
      <g>
       <use xlink:href="#m0ce94dd69f" x="371.0016" y="241.92" style="stroke: #000000; stroke-width: 0.8"/>
      </g>
     </g>
     <g id="text_5">
      <text style="font: 8px 'Arial', 'DejaVu Sans', sans-serif; text-anchor: middle" x="371.0016" y="254.64625" transform="rotate(-0 371.0016 254.64625)">12</text>
     </g>
    </g>
    <g id="xtick_6">
     <g id="line2d_6">
      <g>
       <use xlink:href="#m0ce94dd69f" x="442.4112" y="241.92" style="stroke: #000000; stroke-width: 0.8"/>
      </g>
     </g>
     <g id="text_6">
      <text style="font: 8px 'Arial', 'DejaVu Sans', sans-serif; text-anchor: middle" x="442.4112" y="254.64625" transform="rotate(-0 442.4112 254.64625)">14</text>
     </g>
    </g>
    <g id="text_7">
     <!-- $c_0$ -->
     <g transform="translate(241.8348 267.394063)">
      <text>
       <tspan style="font: italic 10px 'STIXGeneral'" x="0" y="-0.59375">c</tspan>
       <tspan style="font: 7px 'STIXGeneral'" x="4.439987" y="0.7281250000000004">0</tspan>
      </text>
     </g>
    </g>
   </g>
   <g id="matplotlib.axis_2">
    <g id="ytick_1">
     <g id="line2d_7">
      <defs>
       <path id="m6b75ebef21" d="M 0 0 
L -3.5 0 
" style="stroke: #000000; stroke-width: 0.8"/>
      </defs>
      <g>
       <use xlink:href="#m6b75ebef21" x="49.6584" y="198.72" style="stroke: #000000; stroke-width: 0.8"/>
      </g>
     </g>
     <g id="text_8">
      <!-- $\mathdefault{10^{-3}}$ -->
      <g transform="translate(26.8184 202.845)">
       <text>
        <tspan style="font: 8px 'Arial'" x="0 4.449219" y="-0.39949999999999974">10</tspan>
        <tspan style="font: 5.6px 'Arial'" x="9.037825 12.308137" y="-5.975">−3</tspan>
       </text>
      </g>
     </g>
    </g>
    <g id="ytick_2">
     <g id="line2d_8">
      <defs>
       <path id="m25a70c0050" d="M 0 0 
L -2 0 
" style="stroke: #000000; stroke-width: 0.6"/>
      </defs>
      <g>
       <use xlink:href="#m25a70c0050" x="49.6584" y="241.92" style="stroke: #000000; stroke-width: 0.6"/>
      </g>
     </g>
    </g>
    <g id="ytick_3">
     <g id="line2d_9">
      <g>
       <use xlink:href="#m25a70c0050" x="49.6584" y="230.556914" style="stroke: #000000; stroke-width: 0.6"/>
      </g>
     </g>
    </g>
    <g id="ytick_4">
     <g id="line2d_10">
      <g>
       <use xlink:href="#m25a70c0050" x="49.6584" y="220.949561" style="stroke: #000000; stroke-width: 0.6"/>
      </g>
     </g>
    </g>
    <g id="ytick_5">
     <g id="line2d_11">
      <g>
       <use xlink:href="#m25a70c0050" x="49.6584" y="212.627294" style="stroke: #000000; stroke-width: 0.6"/>
      </g>
     </g>
    </g>
    <g id="ytick_6">
     <g id="line2d_12">
      <g>
       <use xlink:href="#m25a70c0050" x="49.6584" y="205.286534" style="stroke: #000000; stroke-width: 0.6"/>
      </g>
     </g>
    </g>
    <g id="ytick_7">
     <g id="line2d_13">
      <g>
       <use xlink:href="#m25a70c0050" x="49.6584" y="155.52" style="stroke: #000000; stroke-width: 0.6"/>
      </g>
     </g>
    </g>
    <g id="ytick_8">
     <g id="line2d_14">
      <g>
       <use xlink:href="#m25a70c0050" x="49.6584" y="130.24962" style="stroke: #000000; stroke-width: 0.6"/>
      </g>
     </g>
    </g>
    <g id="ytick_9">
     <g id="line2d_15">
      <g>
       <use xlink:href="#m25a70c0050" x="49.6584" y="112.32" style="stroke: #000000; stroke-width: 0.6"/>
      </g>
     </g>
    </g>
    <g id="ytick_10">
     <g id="line2d_16">
      <g>
       <use xlink:href="#m25a70c0050" x="49.6584" y="98.412706" style="stroke: #000000; stroke-width: 0.6"/>
      </g>
     </g>
    </g>
    <g id="ytick_11">
     <g id="line2d_17">
      <g>
       <use xlink:href="#m25a70c0050" x="49.6584" y="87.04962" style="stroke: #000000; stroke-width: 0.6"/>
      </g>
     </g>
    </g>
    <g id="ytick_12">
     <g id="line2d_18">
      <g>
       <use xlink:href="#m25a70c0050" x="49.6584" y="77.442267" style="stroke: #000000; stroke-width: 0.6"/>
      </g>
     </g>
    </g>
    <g id="ytick_13">
     <g id="line2d_19">
      <g>
       <use xlink:href="#m25a70c0050" x="49.6584" y="69.12" style="stroke: #000000; stroke-width: 0.6"/>
      </g>
     </g>
    </g>
    <g id="text_9">
     <!-- $\theta=\eta/N$ -->
     <g transform="translate(20.7184 169.92) rotate(-90)">
      <text>
       <tspan style="font: italic 10px 'STIXGeneral'" x="0 14.537973 22.057947" y="-0.21875">θηN</tspan>
       <tspan style="font: 10px 'STIXGeneral'" x="6.243985 19.277963" y="-0.21875">=/</tspan>
      </text>
     </g>
    </g>
   </g>
   <g id="QuadContourSet_1">
    <path d="M 56.014743 216.868679 
L 55.984127 217.234286 
L 55.625123 218.686387 
L 55.350385 220.138487 
L 55.309519 220.382249 
M 59.327035 184.671371 
L 59.264337 185.288067 
L 58.905605 186.740168 
L 58.59978 188.192269 
L 58.310785 189.64437 
L 58.135079 190.560967 
M 62.85195 159.626644 
L 62.737427 160.602353 
L 62.391861 162.054454 
L 62.073954 163.506555 
L 61.759302 164.958655 
L 61.444104 166.410756 
L 61.12761 167.862857 
L 60.960639 168.630183 
M 66.301718 140.430634 
L 66.106864 141.725042 
L 65.812794 143.177143 
L 65.499577 144.629244 
L 65.1708 146.081345 
L 64.829545 147.533445 
L 64.478281 148.985546 
L 64.119013 150.437647 
L 63.786199 151.76038 
M 112.97563 69.12 
L 111.820714 69.639574 
L 109.995109 70.572101 
L 108.995154 71.069811 
L 107.310828 72.024202 
L 106.169594 72.655527 
L 104.870489 73.476303 
L 103.344035 74.419774 
L 102.786374 74.814631 
M 91.675773 84.23455 
L 90.913537 85.093109 
L 89.601147 86.54521 
L 89.216236 86.96188 
L 88.410925 87.997311 
L 87.260252 89.449412 
L 86.390676 90.528845 
L 86.141608 90.901513 
L 85.145153 92.353613 
L 84.132395 93.805714 
L 83.565117 94.603266 
L 83.185322 95.257815 
L 82.320417 96.709916 
L 81.439196 98.162017 
L 80.739557 99.294008 
L 80.582119 99.614118 
L 79.845636 101.066218 
L 79.091606 102.518319 
L 78.322478 103.97042 
L 77.913997 104.725294 
L 77.622876 105.422521 
L 76.996097 106.874622 
L 76.351504 108.326723 
L 75.691655 109.778824 
L 75.088437 111.079687 
L 75.037095 111.230924 
L 74.524415 112.683025 
L 73.991284 114.135126 
L 73.440779 115.587227 
L 72.87554 117.039328 
L 72.297865 118.491429 
L 72.262878 118.57732 
L 71.878809 119.943529 
L 71.447022 121.39563 
L 70.995284 122.847731 
L 70.526904 124.299832 
L 70.044632 125.751933 
L 69.550794 127.204034 
L 69.437318 127.530629 
L 69.201601 128.656134 
L 68.868249 130.108235 
L 68.509682 131.560336 
L 68.131088 133.012437 
L 67.736311 134.464538 
L 67.32835 135.916639 
L 66.909634 137.368739 
L 66.611758 138.381269 
" clip-path="url(#p3989dffd1f)" style="fill: none; stroke: #b9c5cc; stroke-width: 0.7"/>
    <path d="M 57.042213 216.339822 
L 56.966991 217.234286 
L 56.280188 221.590588 
L 55.309519 228.612244 
M 442.4112 111.349533 
L 391.551125 108.194874 
L 383.470264 107.682394 
M 357.50354 106.050493 
L 284.179856 101.578579 
L 250.27314 99.770784 
L 224.843102 98.672172 
L 207.817737 98.162017 
L 193.761945 97.923062 
L 182.459706 97.908069 
L 171.157468 98.102575 
L 159.855229 98.55988 
L 151.37855 99.13928 
L 142.901871 99.978667 
L 137.250751 100.716242 
L 131.599632 101.626165 
L 125.948512 102.75086 
L 120.297393 104.127379 
L 114.646273 105.810751 
L 108.995154 107.884192 
L 103.344035 110.44585 
L 99.305371 112.683025 
L 96.960926 114.135126 
L 94.801999 115.587227 
L 91.073728 118.491429 
L 89.216236 120.074822 
L 86.361397 122.847731 
L 83.565117 125.941093 
L 80.358529 130.108235 
L 77.486029 134.464538 
L 74.989215 138.82084 
L 72.176455 144.629244 
L 69.272404 151.889748 
L 66.062476 162.054454 
L 63.476292 172.21916 
L 61.685992 180.931765 
L 60.857126 185.288067 
L 60.052086 191.096471 
L 58.135079 202.640989 
L 58.135079 202.640989 
" clip-path="url(#p3989dffd1f)" style="fill: none; stroke: #b9c5cc; stroke-width: 0.7"/>
    <path d="M 58.069683 215.815414 
L 57.629117 220.138487 
L 56.155265 231.755294 
L 55.309519 238.137834 
M 442.4112 136.388679 
L 384.791662 132.769175 
M 358.753608 131.104505 
L 292.656535 126.953959 
L 261.575378 125.150728 
L 236.145341 123.862339 
L 216.366423 123.058208 
L 199.413065 122.577919 
L 185.285266 122.393479 
L 173.983027 122.444505 
L 162.680788 122.733765 
L 154.204109 123.144309 
L 145.72743 123.776081 
L 137.250751 124.691576 
L 130.10806 125.751933 
L 125.948512 126.491289 
L 120.297393 127.721096 
L 114.646273 129.233992 
L 108.995154 131.099957 
L 103.344035 133.408262 
L 98.384348 135.916639 
L 97.692915 136.283435 
L 93.63985 138.82084 
L 91.561791 140.272941 
L 87.938161 143.177143 
L 86.287344 144.629244 
L 83.384652 147.533445 
L 80.739557 150.54578 
L 77.571638 154.79395 
L 74.795259 159.150252 
L 72.262878 163.757653 
L 69.116092 170.767059 
L 66.431131 178.027563 
L 63.464283 188.192269 
L 60.804698 199.809076 
L 58.52037 212.877983 
L 58.135079 215.026318 
L 58.135079 215.026318 
" clip-path="url(#p3989dffd1f)" style="fill: none; stroke: #b9c5cc; stroke-width: 0.7"/>
    <path d="M 442.4112 154.204994 
L 384.804506 150.567149 
M 358.739956 148.891303 
L 301.133214 145.210893 
L 258.749819 142.697939 
L 233.319781 141.398369 
L 213.540863 140.585751 
L 196.587505 140.108243 
L 182.459706 139.928196 
L 171.157468 139.988958 
L 159.855229 140.295385 
L 151.37855 140.721732 
L 142.901871 141.384725 
L 134.425191 142.336315 
L 128.774072 143.184156 
L 123.122953 144.218806 
L 117.471833 145.50349 
L 111.820714 147.090801 
L 106.169594 149.056704 
L 102.83679 150.437647 
L 99.731334 151.889748 
L 96.960764 153.341849 
L 94.462566 154.79395 
L 92.041796 156.344419 
L 88.281503 159.150252 
L 86.390676 160.703799 
L 83.413209 163.506555 
L 80.708719 166.410756 
L 77.284352 170.767059 
L 74.386939 175.123361 
L 71.898147 179.479664 
L 69.108614 185.288067 
L 66.611758 191.461905 
L 63.497908 201.261176 
L 60.929028 211.425882 
L 57.98056 227.398992 
L 56.244377 240.467899 
L 56.045999 241.92 
L 56.045999 241.92 
" clip-path="url(#p3989dffd1f)" style="fill: none; stroke: #b9c5cc; stroke-width: 0.7"/>
    <path d="M 442.4112 168.049212 
L 391.551125 164.827923 
L 386.252116 164.482574 
M 355.769044 162.5129 
L 270.052058 157.114669 
L 241.79646 155.559778 
L 219.191983 154.52775 
L 202.238624 153.945207 
L 188.110826 153.65588 
L 173.983027 153.609893 
L 162.680788 153.812318 
L 154.204109 154.15229 
L 144.698657 154.79395 
L 137.250751 155.508013 
L 131.542356 156.24605 
L 125.948512 157.129007 
L 120.297393 158.244167 
L 114.646273 159.622472 
L 108.995154 161.323582 
L 103.192286 163.506555 
L 99.947714 164.958655 
L 97.063276 166.410756 
L 94.472739 167.862857 
L 92.041796 169.36688 
L 88.09495 172.21916 
L 86.279832 173.671261 
L 83.113891 176.575462 
L 80.355705 179.479664 
L 77.913997 182.391285 
L 74.815653 186.740168 
L 72.163282 191.096471 
L 69.215328 196.904874 
L 66.611758 203.042039 
L 63.749656 211.425882 
L 60.960639 221.81842 
L 58.098907 236.111597 
L 57.277112 241.92 
L 57.277112 241.92 
" clip-path="url(#p3989dffd1f)" style="fill: none; stroke: #b9c5cc; stroke-width: 0.7"/>
    <path d="M 442.4112 179.368898 
L 387.018042 175.840835 
M 356.526777 173.869348 
L 260.785205 167.862857 
L 236.145341 166.543706 
L 213.540863 165.55083 
L 196.587505 165.036238 
L 182.459706 164.81437 
L 171.157468 164.83198 
L 159.855229 165.081257 
L 151.37855 165.461517 
L 142.901871 166.067545 
L 134.425191 166.949548 
L 128.029907 167.862857 
L 123.122953 168.709527 
L 117.471833 169.918691 
L 111.820714 171.413199 
L 106.169594 173.263897 
L 100.518475 175.559937 
L 95.627868 178.027563 
L 94.867355 178.431926 
L 90.877595 180.931765 
L 88.802312 182.383866 
L 85.194112 185.288067 
L 83.55094 186.740168 
L 80.66926 189.64437 
L 77.913997 192.831042 
L 74.917597 196.904874 
L 72.180379 201.261176 
L 69.148366 207.06958 
L 66.607125 212.877983 
L 63.786199 220.814681 
L 60.960639 230.945574 
L 58.637715 241.92 
L 58.637715 241.92 
" clip-path="url(#p3989dffd1f)" style="fill: none; stroke: #b9c5cc; stroke-width: 0.7"/>
   </g>
   <g id="line2d_20">
    <path d="M 53.616757 241.92 
L 53.769344 239.415652 
L 53.925389 236.911304 
L 54.084978 234.406957 
L 54.248198 231.902609 
L 54.415142 229.398261 
L 54.585903 226.893913 
L 54.760578 224.389565 
L 54.939266 221.885217 
L 55.122071 219.38087 
L 55.309097 216.876522 
L 55.500453 214.372174 
L 55.696252 211.867826 
L 55.896609 209.363478 
L 56.101643 206.85913 
L 56.311476 204.354783 
L 56.526236 201.850435 
L 56.746052 199.346087 
L 56.971059 196.841739 
L 57.201396 194.337391 
L 57.437206 191.833043 
L 57.678637 189.328696 
L 57.925842 186.824348 
L 58.178979 184.32 
L 58.438209 181.815652 
L 58.703702 179.311304 
L 58.975631 176.806957 
L 59.254175 174.302609 
L 59.539522 171.798261 
L 59.831861 169.293913 
L 60.131393 166.789565 
L 60.438323 164.285217 
L 60.752862 161.78087 
L 61.075233 159.276522 
L 61.405661 156.772174 
L 61.744385 154.267826 
L 62.091647 151.763478 
L 62.447702 149.25913 
L 62.812813 146.754783 
L 63.187252 144.250435 
L 63.571301 141.746087 
L 63.965254 139.241739 
L 64.369416 136.737391 
L 64.784102 134.233043 
L 65.20964 131.728696 
L 65.646372 129.224348 
L 66.094653 126.72 
L 66.55485 124.215652 
L 67.027348 121.711304 
L 67.512544 119.206957 
L 68.010854 116.702609 
L 68.52271 114.198261 
L 69.048563 111.693913 
L 69.588881 109.189565 
L 70.144154 106.685217 
L 70.714892 104.18087 
L 71.301626 101.676522 
L 71.904913 99.172174 
L 72.525333 96.667826 
L 73.16349 94.163478 
L 73.82002 91.65913 
L 74.495584 89.154783 
L 75.190875 86.650435 
L 75.906619 84.146087 
L 76.643575 81.641739 
L 77.40254 79.137391 
L 78.184347 76.633043 
L 78.989873 74.128696 
L 79.820035 71.624348 
L 80.675799 69.12 
" clip-path="url(#p3989dffd1f)" style="fill: none; stroke-dasharray: 5.55,2.4; stroke-dashoffset: 0; stroke: #808080; stroke-width: 1.5"/>
   </g>
   <g id="line2d_21">
    <path d="M 64.06942 241.92 
L 64.142547 239.415652 
L 64.218486 236.911304 
L 64.29734 234.406957 
L 64.379214 231.902609 
L 64.464216 229.398261 
L 64.552459 226.893913 
L 64.644058 224.389565 
L 64.739134 221.885217 
L 64.837809 219.38087 
L 64.94021 216.876522 
L 65.046468 214.372174 
L 65.156719 211.867826 
L 65.271102 209.363478 
L 65.38976 206.85913 
L 65.512842 204.354783 
L 65.640499 201.850435 
L 65.772889 199.346087 
L 65.910174 196.841739 
L 66.052521 194.337391 
L 66.2001 191.833043 
L 66.35309 189.328696 
L 66.511672 186.824348 
L 66.676034 184.32 
L 66.846368 181.815652 
L 67.022875 179.311304 
L 67.205759 176.806957 
L 67.39523 174.302609 
L 67.591507 171.798261 
L 67.794813 169.293913 
L 68.005379 166.789565 
L 68.223442 164.285217 
L 68.449248 161.78087 
L 68.683048 159.276522 
L 68.925102 156.772174 
L 69.175679 154.267826 
L 69.435054 151.763478 
L 69.703514 149.25913 
L 69.981352 146.754783 
L 70.268871 144.250435 
L 70.566385 141.746087 
L 70.874217 139.241739 
L 71.192701 136.737391 
L 71.522183 134.233043 
L 71.86302 131.728696 
L 72.21558 129.224348 
L 72.580247 126.72 
L 72.957414 124.215652 
L 73.347492 121.711304 
L 73.750904 119.206957 
L 74.168092 116.702609 
L 74.59951 114.198261 
L 75.045632 111.693913 
L 75.506949 109.189565 
L 75.983973 106.685217 
L 76.477233 104.18087 
L 76.987282 101.676522 
L 77.514695 99.172174 
L 78.060069 96.667826 
L 78.624028 94.163478 
L 79.207222 91.65913 
L 79.810329 89.154783 
L 80.434057 86.650435 
L 81.079144 84.146087 
L 81.746365 81.641739 
L 82.436526 79.137391 
L 83.150475 76.633043 
L 83.889098 74.128696 
L 84.653323 71.624348 
L 85.444125 69.12 
" clip-path="url(#p3989dffd1f)" style="fill: none; stroke: #6fb4d6; stroke-width: 1.5; stroke-linecap: square"/>
   </g>
   <g id="line2d_22">
    <path d="M 174.204388 241.92 
L 174.262338 239.415652 
L 174.322674 236.911304 
L 174.385477 234.406957 
L 174.450851 231.902609 
L 174.518909 229.398261 
L 174.589754 226.893913 
L 174.663511 224.389565 
L 174.740284 221.885217 
L 174.820209 219.38087 
L 174.903414 216.876522 
L 174.990031 214.372174 
L 175.080193 211.867826 
L 175.174054 209.363478 
L 175.271765 206.85913 
L 175.373482 204.354783 
L 175.47937 201.850435 
L 175.5896 199.346087 
L 175.704352 196.841739 
L 175.823812 194.337391 
L 175.948164 191.833043 
L 176.077619 189.328696 
L 176.212385 186.824348 
L 176.352674 184.32 
L 176.498726 181.815652 
L 176.650761 179.311304 
L 176.809041 176.806957 
L 176.973811 174.302609 
L 177.145338 171.798261 
L 177.323907 169.293913 
L 177.509807 166.789565 
L 177.703334 164.285217 
L 177.904801 161.78087 
L 178.114545 159.276522 
L 178.332897 156.772174 
L 178.560212 154.267826 
L 178.79687 151.763478 
L 179.043245 149.25913 
L 179.299742 146.754783 
L 179.566783 144.250435 
L 179.844791 141.746087 
L 180.134232 139.241739 
L 180.43558 136.737391 
L 180.749311 134.233043 
L 181.075962 131.728696 
L 181.416057 129.224348 
L 181.770147 126.72 
L 182.138821 124.215652 
L 182.522694 121.711304 
L 182.922391 119.206957 
L 183.338565 116.702609 
L 183.771912 114.198261 
L 184.223154 111.693913 
L 184.693042 109.189565 
L 185.182349 106.685217 
L 185.691898 104.18087 
L 186.22254 101.676522 
L 186.775163 99.172174 
L 187.350709 96.667826 
L 187.950139 94.163478 
L 188.57447 91.65913 
L 189.224777 89.154783 
L 189.902151 86.650435 
L 190.607771 84.146087 
L 191.342844 81.641739 
L 192.10864 79.137391 
L 192.906502 76.633043 
L 193.737818 74.128696 
L 194.604062 71.624348 
L 195.506754 69.12 
" clip-path="url(#p3989dffd1f)" style="fill: none; stroke: #2779b6; stroke-width: 1.5; stroke-linecap: square"/>
   </g>
   <g id="line2d_23">
    <path d="M 49.6584 155.52 
L 442.4112 155.52 
" clip-path="url(#p3989dffd1f)" style="fill: none; stroke-dasharray: 0.8,1.32; stroke-dashoffset: 0; stroke: #404040; stroke-width: 0.8"/>
   </g>
   <g id="patch_3">
    <path d="M 49.6584 241.92 
L 49.6584 69.12 
" style="fill: none; stroke: #000000; stroke-width: 0.7; stroke-linejoin: miter; stroke-linecap: square"/>
   </g>
   <g id="patch_4">
    <path d="M 49.6584 241.92 
L 442.4112 241.92 
" style="fill: none; stroke: #000000; stroke-width: 0.7; stroke-linejoin: miter; stroke-linecap: square"/>
   </g>
   <g id="text_10">
    <g clip-path="url(#p3989dffd1f)">
     <text style="fill: #b9c5cc; font: 8px 'Arial', 'DejaVu Sans', sans-serif; text-anchor: middle" x="96.9015" y="81.352831" transform="rotate(-0 96.9015 81.352831)">20</text>
    </g>
   </g>
   <g id="text_11">
    <g clip-path="url(#p3989dffd1f)">
     <text style="fill: #b9c5cc; font: 8px 'Arial', 'DejaVu Sans', sans-serif; text-anchor: middle" x="370.484689" y="108.942747" transform="rotate(-0 370.484689 108.942747)">40</text>
    </g>
   </g>
   <g id="text_12">
    <g clip-path="url(#p3989dffd1f)">
     <text style="fill: #b9c5cc; font: 8px 'Arial', 'DejaVu Sans', sans-serif; text-anchor: middle" x="371.772207" y="134.005065" transform="rotate(-0 371.772207 134.005065)">60</text>
    </g>
   </g>
   <g id="text_13">
    <g clip-path="url(#p3989dffd1f)">
     <text style="fill: #b9c5cc; font: 8px 'Arial', 'DejaVu Sans', sans-serif; text-anchor: middle" x="371.772207" y="151.792292" transform="rotate(-0 371.772207 151.792292)">80</text>
    </g>
   </g>
   <g id="text_14">
    <g clip-path="url(#p3989dffd1f)">
     <text style="fill: #b9c5cc; font: 8px 'Arial', 'DejaVu Sans', sans-serif; text-anchor: middle" x="371.010126" y="165.57468" transform="rotate(-0 371.010126 165.57468)">100</text>
    </g>
   </g>
   <g id="text_15">
    <g clip-path="url(#p3989dffd1f)">
     <text style="fill: #b9c5cc; font: 8px 'Arial', 'DejaVu Sans', sans-serif; text-anchor: middle" x="371.772207" y="176.926166" transform="rotate(-0 371.772207 176.926166)">120</text>
    </g>
   </g>
   <g id="legend_1">
    <g id="line2d_24">
     <path d="M 176.2398 23.791781 
L 185.2398 23.791781 
L 194.2398 23.791781 
" style="fill: none; stroke-dasharray: 5.55,2.4; stroke-dashoffset: 0; stroke: #808080; stroke-width: 1.5"/>
    </g>
    <g id="text_16">
     <text style="font: 9px 'Arial', 'DejaVu Sans', sans-serif; text-anchor: start" x="201.4398" y="26.941781" transform="rotate(-0 201.4398 26.941781)">Trigger boundary</text>
    </g>
    <g id="line2d_25">
     <path d="M 176.2398 37.656 
L 185.2398 37.656 
L 194.2398 37.656 
" style="fill: none; stroke: #6fb4d6; stroke-width: 1.5; stroke-linecap: square"/>
    </g>
    <g id="text_17">
     <!-- Inflection onset ($s^*=2\bar{s}$) -->
     <g transform="translate(201.4398 40.806)">
      <text>
       <tspan style="font: 9px 'Arial'" x="0 2.500488 7.505859 10.006348 12.005859 17.01123 21.51123 24.011719 26.01123 31.016602 36.021973 38.522461 43.527832 48.533203 53.033203 58.038574 60.539062 63.039551 92.22802" y="-0.5703125">Inflection onset ()</tspan>
       <tspan style="font: italic 9px 'STIXGeneral'" x="66.036621 88.727028" y="-0.5703125">ss</tspan>
       <tspan style="font: 6.3px 'STIXGeneral'" x="71.006239" y="-3.7453125000000007">*</tspan>
       <tspan style="font: 9px 'STIXGeneral'" x="76.762435 84.227028 93.071026" y="-0.5703125 -0.5703125 -0.7578125">=2̄</tspan>
      </text>
     </g>
    </g>
    <g id="line2d_26">
     <path d="M 176.2398 50.706 
L 185.2398 50.706 
L 194.2398 50.706 
" style="fill: none; stroke: #2779b6; stroke-width: 1.5; stroke-linecap: square"/>
    </g>
    <g id="text_18">
     <!-- Stationary curve ($\partial\Delta t/\partial c_0=0$) -->
     <g transform="translate(201.4398 53.856)">
      <text>
       <tspan style="font: 9px 'Arial'" x="0 6.00293 8.503418 13.508789 16.009277 18.008789 23.01416 28.019531 33.024902 36.021973 40.521973 43.022461 47.522461 52.527832 55.524902 60.024902 65.030273 67.530762 111.314899" y="-0.453125">Stationary curve ()</tspan>
       <tspan style="font: 9px 'STIXGeneral'" x="70.527832 74.76683 83.76683 86.268829 99.350305 106.814899" y="-0.453125">∂Δ/∂=0</tspan>
       <tspan style="font: italic 9px 'STIXGeneral'" x="81.264832 90.507828" y="-0.453125">tc</tspan>
       <tspan style="font: 6.3px 'STIXGeneral'" x="94.50383" y="0.7374999999999998">0</tspan>
      </text>
     </g>
    </g>
   </g>
  </g>
 </g>
 <defs>
  <clipPath id="p3989dffd1f">
   <rect x="49.6584" y="69.12" width="392.7528" height="172.8"/>
  </clipPath>
 </defs>
</svg>
